<svg xmlns="http://www.w3.org/2000/svg" viewBox="0 0 30 30"><path d="M15 0C6.7 0 0 6.7 0 15s6.7 15 15 15 15-6.7 15-15S23.3 0 15 0zm5 21.6l-.7.7c-.2.2-.3.4-.4.6-.1.3-.2.7-.3 1l-1.1 2.8c-.8.2-1.7.3-2.6.3v-1.7c.1-.8-.5-2.2-1.4-3.1-.4-.4-.6-.9-.6-1.4V19c0-.7-.4-1.4-1-1.7-.9-.5-2.1-1.2-3-1.6-.7-.3-1.3-.8-1.9-1.3-.4-.4-.8-.8-1.1-1.3-.6-.8-1.5-2.2-2.1-3.1C5 7.2 7.3 5 10 3.8l1.5.7c.6.3 1.4-.1 1.4-.9v-.5c.5-.1 1-.1 1.5-.1l1.7 1.7c.4.4.4 1 0 1.4l-.1.2-.6.6c-.2.2-.2.5 0 .7l.3.3c.2.2.2.5 0 .7l-.5.5c-.1.1-.2.1-.3.1h-.5c-.1 0-.2 0-.3.1l-.6.6c-.2.1-.2.4-.1.6l.9 1.9c.2.3-.1.7-.4.7h-.3c-.1 0-.2 0-.3-.1l-.6-.5c-.3-.2-.6-.3-.9-.2l-1.9.6c-.3.1-.5.4-.5.7 0 .3.2.5.4.6l.7.3c.6.3 1.2.4 1.8.4s1.4 1.7 1.9 1.9h4c.5 0 1 .2 1.4.6l.8.8c.3.3.5.8.5 1.3-.1.9-.4 1.6-.9 2.1zm5.2-5.5c-.4-.1-.7-.3-.9-.6l-1.1-1.6c-.3-.5-.3-1.1 0-1.6l1.2-1.8c.1-.2.3-.4.6-.5l.8-.4c.8 1.6 1.3 3.5 1.3 5.4 0 .5 0 1-.1 1.5l-1.8-.4z" fill="#020203"/></svg>