<svg class="insta-badge" xmlns="http://www.w3.org/2000/svg" viewBox="0 0 300 300"><circle class="st0" fill="#f2923e" cx="150" cy="150" r="137.6"/><path d="M35.1 74.2c-12.4 18.7-20.3 40.6-22.3 64.2l227.5 115.4c17.2-15 30.6-34.1 38.7-55.9L35.1 74.2z" fill="#61bfbc"/><path class="st0" fill="#f2923e" d="M217.9 169.2l-9.8 22.4c-.9 1.9-1.7 3.8-2.5 5.7l-7.5 17.2-1.1-6c-3.3-18.3-15.4-33.6-32.4-41L136 155c-8-3.5-12.8-12-11.6-20.7l.3-2.4 44 19.1c1.5.7 3.3 0 3.9-1.5.7-1.5 0-3.3-1.5-3.9l-39.6-17.2c-5.5-2.4-9.7-6.7-11.8-12.3-1.5-3.8-1.9-8-1.2-12l.4-2.3 46.8 20.3c1.5.5 3-.2 3.6-1.7.6-1.4.1-3-1.3-3.8l-.1-.1-40-17.4c-13.8-6-21.2-20.9-17.6-35.5l.5-2.1 78.1 34c28.3 12.6 41.3 45.5 29 73.7z"/><path d="M150 4c39 0 75.7 15.2 103.2 42.8C280.8 74.3 296 111 296 150s-15.2 75.7-42.8 103.2C225.7 280.8 189 296 150 296s-75.7-15.2-103.2-42.8C19.2 225.7 4 189 4 150S19.2 74.3 46.8 46.8C74.3 19.2 111 4 150 4m0-4C67.2 0 0 67.2 0 150s67.2 150 150 150 150-67.2 150-150S232.8 0 150 0z" fill="#dbdbdb"/><path d="M12.9 138.4c-.3 3.8-.5 7.7-.5 11.6 0 76 61.6 137.6 137.6 137.6 34.6 0 66.2-12.7 90.3-33.8L12.9 138.4z" fill="#ec6680"/><path id="ala_1_" class="st4" fill="#fff" d="M190 90.3l-84.6-36.8c-1.2-.5-2.6-.6-3.9-.1-1.2.5-2.2 1.5-2.8 2.7-4.4 10.2-4.3 21.2-.5 30.8 1.9 4.8 4.7 9.2 8.3 13-2.7 7.2-2.6 15.1.3 22.3 1.4 3.5 3.3 6.7 5.8 9.4-2.3 6.5-2.2 13.5.4 19.9 2.8 7.1 8.2 12.7 15.3 15.8l29.9 13c3.6 1.6 6.8 3.5 9.8 5.8 0 0 .9.6 2.4 2 6.1 5.4 10.8 12.1 13.8 19.2 4.6 9.2 8.8 21.9 10.5 38.9l34-81.9c6-29.9-9.5-61.3-38.7-74zm27.9 78.9l-9.8 22.4c-.9 1.9-1.7 3.8-2.5 5.7l-7.5 17.2-1.1-6c-3.3-18.3-15.4-33.6-32.4-41L136 155c-8-3.5-12.8-12-11.6-20.7l.3-2.4 44 19.1c1.5.7 3.3 0 3.9-1.5.7-1.5 0-3.3-1.5-3.9l-39.6-17.2c-5.5-2.4-9.7-6.7-11.8-12.3-1.5-3.8-1.9-8-1.2-12l.4-2.3 46.8 20.3c1.5.5 3-.2 3.6-1.7.6-1.4.1-3-1.3-3.8l-.1-.1-40-17.4c-13.8-6-21.2-20.9-17.6-35.5l.5-2.1 78.1 34c28.3 12.6 41.3 45.5 29 73.7z"/><path id="linea_x5F_ala1_1_" class="st4" fill="#fff" d="M142.5 207.7L57 164.3c-.4-.2-.6-.8-.4-1.2l2.2-4.3c.2-.4.8-.6 1.2-.4l85.6 43.4c.4.2.6.8.4 1.2l-2.2 4.3c-.3.5-.8.7-1.3.4z"/><path id="linea_x5F_ala2_1_" class="st4" fill="#fff" d="M151.7 235.4l-67.4-34.2c-.4-.2-.6-.8-.4-1.2l2.2-4.3c.2-.4.8-.6 1.2-.4l67.4 34.2c.4.2.6.8.4 1.2l-2.2 4.3c-.2.4-.8.6-1.2.4z"/></svg>