<svg version="1.1" id="Livello_1" xmlns="http://www.w3.org/2000/svg" x="0" y="0" viewBox="0 0 358.7 156.8" xml:space="preserve"><style>.st0{fill:#61bfbc}.st2{fill:#fff}.st4{fill:#f2923e}</style><g id="montagna_cerchio_1_"><path class="st0" d="M358.7 93.3l-21.2-52.1c-2.2-5.3-9.6-5.8-12.5-.8-1.3 2.2-4.4 7.4-6.2 10.5l-19.6-47c-2-4.8-8.7-5.2-11.3-.7l-14.3 24.6c-.6 1-2.1.9-2.6-.2-2-4.8-8.7-5.2-11.3-.7l-14.4 24.6c1 33.2 27.2 60.9 61 63.1 20.6 1.2 39.5-7.1 52.4-21.3z"/><path d="M323.4 88.7l-14-33.3-5.4 4.9c-4 3.6-10.1 3.5-14-.3l-7.4-6.9c-4.2 4.5-8.4 9.4-15.6 7.2l-12.6 22.2c10.6 18 29.6 30.5 52 32 9.7.6 19.1-.9 27.6-4.2-4-8.6-10.6-21.6-10.6-21.6z" fill="#ec6680"/><path class="st2" d="M283.6 47.1l6.8 6.7c3.3 3.2 8.6 3.3 12 .3l4.6-4.2-9.5-22.6-.5-1.3c-1.7-4.1-7.4-4.4-9.6-.6L270.6 54c6.2 1.9 9.4-3 13-6.9z"/><path d="M309.3 55.4l-5.4 4.9c-4 3.6-10.1 3.5-14-.3l-7.4-6.9c-4.2 4.5-8.4 9.4-15.6 7.2 0 0 4.1 3.8 5.8 4.4 5.1 1.9 9.1 1.1 13.3-3.4l7.4 6.9c3.8 3.8 10 3.9 14 .3l5.4-4.9-3.5-8.2z" fill="#e83261"/></g><path class="st2" d="M297.8 114.8c1.2-.4 2.5-1.2 3.9-2.3 1.9-1.7 3.8-3.7 5.6-5.9 1.8-2.2 3.4-4.4 4.8-6.5l3-4.5.1-.1v-.2c-.2-.8-.4-1.2-.8-1.4-.3-.1-.7-.2-1.2-.2h-.2l-.1.2c0 .1-.3.4-1 1.4-.6.8-1.3 1.8-2.2 3-.9 1.2-1.8 2.4-2.9 3.7-1 1.3-2.1 2.5-3.1 3.6s-2 2-2.9 2.8c-1.1.9-1.6 1-1.8 1-.1 0-.2-.1-.4-.2-.1-.5-.1-1.5.5-3.6.2-.7.4-1.6.6-2.5.2-.9.5-1.9.9-2.8v-.1c.5-1.1 1.1-2.2 1.7-3.2.6-.8 1.5-1.5 2.2-2.1l.4-.3c.8-.5 1.2-.9 1.2-1.2 0-.5-1.6-2-1.6-2-1.6-1.1-2.6-1.7-3.8-1.9.5-2 .9-4 1-6 .1-2.4-.8-4.5-2.8-6.4-.6-.5-1.2-1-1.9-1.3-.7-.4-1.6-.6-2.5-.6-1.9 0-4 .9-6.4 2.8-1.7 1.2-3.6 3-5.6 5.4l-2.4 3c-.2-1.8-.9-3.4-2-4.8-1.9-2.4-4.4-3.5-7.6-3.5-2.2 0-4.4.7-6.6 2.1-2.4 1.7-4.9 4.1-7.6 7.2-.6.7-2.6-3.2-2.6-3.2 1-1.4 1.9-3.1 2.8-4.7.8-1.4 1.5-2.7 2.3-3.9 1.6-2.5 3.4-5 5.2-7.5.2-.2.3-.5.5-.8.2-.3.4-.7.1-1.4-.3-.8-.8-1.5-1.7-2.2-.9-.6-1.8-1-2.7-1-.4 0-1 .3-1.6 1.1-.8 1-1.6 2.4-2.5 4-.8 1.6-1.6 3.2-2.2 4.9-.6 1.7-1.2 3.4-1.6 5.1-.4 1.8-1 4.6-.8 6.1l20 21.5 26.3 9.4z"/><path id="ala" class="st4" d="M59.5 35.3l-38-16.5c-.6-.2-1.2-.3-1.7 0-.6.2-1 .7-1.2 1.2-2 4.6-1.9 9.5-.2 13.8.8 2.1 2.1 4.1 3.7 5.8-1.2 3.2-1.2 6.8.1 10 .6 1.6 1.5 3 2.6 4.2-1 2.9-1 6 .2 8.9 1.3 3.2 3.7 5.7 6.8 7.1l13.4 5.8c1.6.7 3.1 1.6 4.4 2.6 0 0 .4.3 1.1.9 2.7 2.4 4.8 5.4 6.2 8.6 2.1 4.1 3.9 9.8 4.7 17.4l15.2-36.7C79.5 55 72.6 41 59.5 35.3zM72 70.7l-4.4 10.1c-.4.9-.8 1.7-1.1 2.5L63.2 91l-.5-2.7c-1.5-8.2-6.9-15-14.5-18.4l-12.8-5.6c-3.6-1.6-5.7-5.4-5.2-9.3l.1-1.1L50 62.6c.7.3 1.5 0 1.8-.7.3-.7 0-1.5-.7-1.8l-17.7-7.7c-2.4-1.1-4.3-3-5.3-5.5-.7-1.7-.9-3.6-.6-5.4l.2-1 21 9.1c.7.2 1.4-.1 1.6-.7.3-.6 0-1.4-.6-1.7h-.1l-17.9-7.8c-6.2-2.7-9.5-9.4-7.9-15.9l.2-1 35 15.2c12.7 5.5 18.5 20.3 13 33z"/><path id="linea_x5F_ala1" class="st4" d="M37.2 87.4L.8 68.9c-.7-.4-1-1.3-.6-2s1.3-1 2-.6l36.4 18.5c.7.4 1 1.3.6 2s-1.2 1-2 .6z"/><path id="linea_x5F_ala2" class="st4" d="M41.3 99.8L13.1 85.5c-.7-.4-1-1.3-.6-2s1.3-1 2-.6l28.3 14.3c.7.4 1 1.3.6 2s-1.3 1-2.1.6z"/><path id="testo_x5F_delivery" class="st0" d="M98.3 140h7.1c1.8 0 3.4.4 4.7 1.1 1.4.7 2.4 1.7 3.2 3 .8 1.3 1.1 2.7 1.1 4.4s-.4 3.1-1.1 4.4c-.8 1.3-1.8 2.3-3.2 3-1.4.7-3 1.1-4.7 1.1h-7.1v-17zm7 14.7c1.4 0 2.6-.3 3.6-.8s1.8-1.3 2.4-2.2c.6-1 .8-2.1.8-3.3s-.3-2.3-.8-3.3c-.6-1-1.4-1.7-2.4-2.2-1-.5-2.2-.8-3.6-.8h-4.5v12.6h4.5zm34.6 0v2.1h-12.2V140h11.9v2.1h-9.5v5.2h8.4v2h-8.4v5.4h9.8zm13.5-14.7h2.4v14.7h9.1v2.1h-11.5V140zm23.9 0h2.4v16.8h-2.4V140zm31.5 0l-7.4 16.8H199l-7.4-16.8h2.6l6 13.8 6.1-13.8h2.5zm23.9 14.7v2.1h-12.2V140h11.9v2.1h-9.5v5.2h8.4v2h-8.4v5.4h9.8zm24.7 2.1l-3.6-5.2H248.5v5.1h-2.4V140h6.6c2.2 0 3.9.5 5.1 1.6 1.2 1 1.9 2.5 1.9 4.3 0 1.3-.3 2.4-1 3.3-.6.9-1.6 1.6-2.7 2l4 5.6h-2.6zm-1.3-8.1c.8-.7 1.2-1.6 1.2-2.8s-.4-2.1-1.2-2.8c-.8-.6-2-1-3.5-1h-4.1v7.6h4.1c1.6 0 2.7-.4 3.5-1zm23.3 2.3v5.8H277V151l-6.7-10.9h2.6l5.4 8.9 5.4-8.9h2.4l-6.7 10.9z"/><path id="testo_x5F_val" class="st4" d="M131.2 69.7c-.6-1.6-.9-4-.8-7.3.1-3.2.4-6.9 1-10.9s1.3-8.2 2.2-12.6c.9-4.4 1.9-8.6 2.8-12.6 1-4 1.9-7.6 2.9-10.8 1-3.2 1.8-5.6 2.5-7.3.6-1.4 1.4-2.3 2.5-2.9 1.1-.6 2.2-.9 3.2-.9s1.7.2 2.3.7c.6.4.6.9 0 1.4-.5.6-1.2 2.4-2 5.3-.9 2.9-1.8 6.4-2.8 10.5-1 4.1-2 8.5-3.1 13.1-1 4.7-1.9 9.1-2.7 13.4-.8 4.2-1.4 7.9-1.8 11.1-.4 3.2-.6 5.3-.4 6.4 1-.8 2.4-2.5 4.4-5.2 2-2.7 4.2-5.8 6.7-9.5 2.4-3.6 4.9-7.5 7.4-11.7 2.5-4.2 4.7-8.1 6.6-11.9 1.9-3.8 3.4-7.2 4.4-10.2 1-3 1.3-5.1.7-6.4-.2-.1-.1-.1.1-.2.2 0 .4-.1.5-.1.6 0 1.2.2 1.9.6.7.4 1.2 1.2 1.6 2.3.3 1.1.3 2.7-.1 4.8-.4 2.1-1.4 4.8-3.1 8-2.2 4.2-4.5 8.5-7 12.8-2.5 4.3-5 8.5-7.7 12.4-2.6 4-5.3 7.6-7.9 11-2.6 3.4-5.2 6.2-7.6 8.4-1 1-2.1 1.6-3.1 1.6-.9 0-1.6-.3-2.2-1-.5-.5-1-1.3-1.4-2.3zm37.7-33.5c1.4-1.9 2.8-3.3 4-4.3 1.7-1.4 3.2-2.2 4.4-2.2.6 0 1.2.1 1.7.4.5.3.9.6 1.3 1 1.4 1.4 2 3.1 1.9 4.9-.1 1.8-.4 3.6-.8 5.3.6-.2 1.2-.4 1.6-.4 1.4 0 2.6.7 3.7 2 .4.4.6.7.6.8 0 .2-.2.4-.7.7-.6.5-1.1 1.1-1.6 2-.5.8-1 1.7-1.3 2.7s-.7 1.9-.9 2.9c-.2 1-.4 1.8-.6 2.5-.6 1.8-.7 3.1-.5 3.8.2.2.5.4.7.4.5 0 1.2-.4 2-1.1.9-.8 1.8-1.7 2.9-2.8 1-1.1 2.1-2.3 3.1-3.7.3-.4.6-.7.9-1.1 1.1-2.8 2.3-5.7 3.5-8.6 1.6-3.6 3.1-7.1 4.6-10.4 1.5-3.3 2.9-6.2 4.2-8.8 1.3-2.6 2.3-4.5 3-5.8.6-.9 1.2-1.6 1.8-2.2.6-.6 1.4-.9 2.5-.9.9 0 1.7.2 2.3.5.7.3 1.3.7 1.7 1.1.5.4.8.9.9 1.4.1.5.1.8-.2 1.1-1 1-2.3 2.7-3.9 5.3-1.6 2.6-3.4 5.7-5.3 9.2-1.9 3.5-3.9 7.3-5.8 11.5-2 4.1-3.8 8.2-5.5 12.2-1.7 4-3.1 7.8-4.3 11.3-1.2 3.6-2 6.5-2.3 8.9-.7 0-1.3-.3-1.7-.8-.4-.5-.8-1.1-1-1.8-.2-.7-.4-1.4-.4-2.2 0-.8-.1-1.4-.1-1.9.2-1.9.8-4.4 1.7-7.4.4-1.4.9-2.9 1.4-4.4-1.2 1.3-2.4 2.5-3.7 3.6-1.9 1.7-3.7 2.5-5.3 2.5-1 0-1.8-.4-2.6-1.2-1.2-1.1-1.8-2.6-1.9-4.4 0-1.8.1-3.5.3-5.1.1-.2.1-.5.1-.7-.9 1.4-1.8 2.9-2.8 4.5-1 1.6-2 3-2.9 4.4-1 1.4-1.9 2.5-2.8 3.5-.9 1-1.8 1.6-2.6 2-.2 0-.3 0-.4.1-.1 0-.2.1-.4.1-.4 0-.7-.1-1-.2-.2-.1-.6-.3-1-.4-1.6-.7-2.6-1.9-3-3.7-.4-1.7-.4-3.7.1-5.9.4-2.2 1.2-4.5 2.3-7 1.1-2.5 2.3-4.9 3.7-7.2 1.6-2 3-4.1 4.4-6zm-.1 15c-1.2 2.5-2.1 4.8-2.8 6.7-.7 2-.8 3.1-.4 3.5.5 0 1.2-.5 2-1.6.9-1 1.9-2.3 2.9-3.9 1.1-1.6 2.2-3.3 3.4-5.1 1.2-1.8 2.4-3.5 3.5-5 .3-.6.6-1.2 1-1.8.3-.6.8-1 1.3-1.4.5-3.9.2-5.9-.7-5.9-.4 0-1.2.5-2.3 1.4-1.2 1.3-2.5 3.1-4 5.6-1.4 2.5-2.7 5-3.9 7.5zm38.3-9.6c-1.6 3.6-3 7.2-4.3 10.7s-2.4 6.7-3.4 9.7c-.9 3-1.5 5.5-1.7 7.4 0 .5 0 1.1.1 1.9 0 .8.2 1.5.4 2.2.2.7.6 1.3 1 1.8s1 .8 1.7.8c.3-2.4 1.1-5.4 2.3-8.9 1.2-3.6 2.6-7.3 4.3-11.3 1.7-4 3.5-8.1 5.5-12.2s3.9-7.9 5.8-11.5c1.9-3.5 3.7-6.6 5.3-9.2 1.6-2.6 2.9-4.4 3.9-5.3.2-.2.3-.6.2-1.1-.1-.5-.4-.9-.9-1.4-.5-.4-1.1-.8-1.7-1.1-.7-.3-1.5-.5-2.3-.5-1.1 0-2 .3-2.5.9-.6.6-1.2 1.3-1.8 2.2-.7 1.3-1.7 3.2-3 5.8-1.3 2.6-2.7 5.5-4.2 8.8-1.6 3.2-3.1 6.6-4.7 10.3zm17.4-3.8c1.4-.9 2.8-1.3 4.2-1.3 1.8 0 3.4.7 4.6 2.2 1.2 1.4 1.6 3.1 1.2 5-.2.4-.3.8-.4 1.1-.1.4-.2.7-.4 1v.2c-.4 1-1 2-1.7 3.1-.8 1.1-1.6 2.2-2.6 3.2s-2 1.9-3.1 2.6c-1.1.7-2.1 1.1-3.2 1.1-1.6 0-2.8-.5-3.5-1.4-.5 1.2-.9 2.4-1.2 3.5-.3 1.1-.5 2.1-.5 3 0 .9.2 1.6.5 2.2.4.6 1 .9 1.9 1 2.2 0 4.4-.7 6.7-2.2s4.5-3.2 6.6-5.3c2.1-2.1 4.1-4.3 5.8-6.5 1.8-2.3 3.2-4.3 4.4-5.9 0-.1.1-.1.2-.1.2 0 .5.1.8.3.3.2.4.5.4 1-.4.5-.9 1.2-1.4 2-.6.9-1.2 1.9-2 3-1.1 1.5-2.5 3.3-4 5.3-1.6 2-3.3 4-5.1 5.8-1.8 1.8-3.8 3.3-5.8 4.6-2 1.3-4.1 1.9-6.3 1.9-2.5 0-4.3-.8-5.5-2.5-1.8-2.2-2.6-4.6-2.6-7.3s.6-5.3 1.8-8c1.2-2.6 2.7-5.1 4.6-7.4 1.9-2.3 3.7-4 5.6-5.2zm1.3 7c-.9 1-1.8 2.2-2.8 3.5-.9 1.3-1.7 2.7-2.5 4.1.2.6.6.8 1.2.8s1.4-.3 2.3-.8c.9-.6 1.8-1.3 2.8-2.2 1-.9 1.8-1.9 2.6-3s1.4-2.2 1.9-3.2c.2-1 .3-1.8.1-2.3-.2-.3-.6-.5-1.1-.5-.6 0-1.2.3-2 1-.7.7-1.5 1.5-2.5 2.6zm25.8 38.1c.1 0 .3-.2.6-.7 1.8-2.6 3.5-5.1 5.1-7.6 1.6-2.5 3.4-5 5.2-7.5.2-.2.3-.5.5-.8.2-.3.2-.6.1-1-.2-.7-.8-1.4-1.6-2-.8-.6-1.6-.9-2.5-.9-.3 0-.8.3-1.3 1-.8 1-1.6 2.3-2.5 3.9-.8 1.6-1.6 3.2-2.2 4.9-.6 1.7-1.2 3.4-1.6 5.1-.4 1.7-.5 3.3-.4 4.6.3.6.4 1 .6 1zm62.3 11.5l-3 4.5c-1.4 2.1-3 4.3-4.8 6.5-1.8 2.2-3.6 4.1-5.5 5.8-1.9 1.7-3.7 2.5-5.3 2.5-1 0-1.8-.4-2.6-1.2-1.2-1.1-1.8-2.6-1.9-4.4 0-1.8.1-3.5.3-5.1.1-.2.1-.5.1-.7-.9 1.4-1.8 2.9-2.8 4.5-1 1.6-2 3-2.9 4.4-1 1.4-1.9 2.5-2.8 3.5-.9 1-1.8 1.6-2.6 2-.2 0-.3 0-.4.1-.1 0-.2.1-.4.1-.4 0-.7-.1-1-.2-.2-.1-.6-.3-1-.4-1.6-.7-2.6-1.9-3-3.7-.3-1.4-.4-3-.1-4.7-1.1 1.3-2.2 2.6-3.4 3.8a31.7 31.7 0 01-5.8 4.6c-2.1 1.3-4.2 1.9-6.4 1.9-2.5 0-4.3-.8-5.5-2.5-1.8-2.2-2.5-4.8-2.2-7.9 0-.3.1-.6.1-.9-.7.8-1.4 1.6-2.2 2.4-1.7 1.8-3.4 3.3-5 4.6-1.7 1.3-3.1 2-4.3 2-.8 0-1.6-.2-2.3-.7-.8-.5-1.4-1.1-1.9-1.9-.5-.8-.8-1.6-1-2.6-.2-1 0-2 .4-3.1.1-.2.2-.5.3-.9-.4.4-.7.8-1.1 1.2-1.9 2-3.8 3.7-5.8 5.2-2 1.4-3.8 2.2-5.5 2.2-.5 0-.8 0-1-.1-1.4-.3-2.3-1-2.9-2.1-.6-1.1-.8-2.4-.8-3.9s.2-3.1.7-4.9c.4-1.7 1-3.4 1.6-5 .6-1.6 1.3-3.1 1.9-4.5.6-1.4 1.2-2.4 1.6-3.1-3.3 4-6.4 8-9.3 12.1-2.9 4-5.8 8.2-8.6 12.4-.6.9-1.2 1.3-1.6 1.3-.2 0-.4-.1-.7-.2-.3-.1-.6-.3-.9-.4-1.8-.9-3-1.9-3.4-3.1-.4-1.2-.3-2.7.4-4.6.8-2.1 1.5-4 2.2-5.7.7-1.7 1.4-3.4 2-5 .7-1.6 1.4-3.2 2.2-4.8.8-1.6 1.6-3.3 2.5-5.2-1 .3-2.2.6-3.4.9-1.2.3-2.5.5-3.8.7.2 2.4-.3 5.2-1.3 8.3-1 3.2-2.4 6.1-4.1 8.9-1.7 2.8-3.7 5.1-5.8 7-2.2 1.9-4.3 2.9-6.4 2.9-1.9 0-3.4-.7-4.5-2s-1.7-2.9-2-4.7c-.1-1.1-.1-2.2.1-3.5-.2.3-.4.5-.7.8-2 2.3-4.1 4.3-6.2 5.9-2.1 1.6-4.1 2.5-5.8 2.5-.4 0-.7-.1-1-.2-.3-.2-.6-.3-1-.5-1-.6-1.5-1.6-1.6-2.8-.1-1.2-.1-2.2.1-3.1.6-2.7 1.4-5.3 2.3-7.9.9-2.5 1.9-5.1 3.1-7.6.3-.5.4-.7.2-.7 0 .1 0 .2-.1.2 0 .1-.1.2-.2.4-2.2 2.8-4.3 5.6-6.4 8.4-2.1 2.8-4.2 5.7-6.3 8.6-.2.2-.3.3-.4.5-.1.2-.4.3-.8.4-.6-.1-1.3-.4-1.9-1-.6-.6-1-1.2-1.2-1.9-.4-1-.5-2-.4-3 .1-1 .3-2 .5-2.9.8-2.4 1.7-4.8 2.8-7.1 1.1-2.4 2.3-4.8 3.7-7.3-3.4 4.2-6.7 8.6-9.9 13s-6.4 8.9-9.4 13.5c-.2.3-.5.8-.9 1.4-.4.6-.7 1-1.1 1-.6.1-1.5-.2-2.5-.7-1-.6-1.7-1.1-2.1-1.6-.6-.9-.9-1.8-.8-2.8.1-1 .3-2 .6-2.9.1-.3.2-.5.3-.8-.8.8-1.6 1.6-2.4 2.3-1.9 1.7-3.7 2.5-5.3 2.5-1 0-1.8-.4-2.6-1.2-1.2-1.1-1.8-2.6-1.9-4.4 0-1.8.1-3.5.3-5.1.1-.2.1-.5.1-.7-.9 1.4-1.8 2.9-2.8 4.5-1 1.6-2 3-2.9 4.4-1 1.4-1.9 2.5-2.8 3.5-.9 1-1.8 1.6-2.6 2-.2 0-.3 0-.4.1-.1 0-.2.1-.4.1-.4 0-.7-.1-1-.2-.2-.1-.6-.3-1-.4-1.6-.7-2.6-1.9-3-3.7-.3-1.3-.4-2.6-.2-4.2-.7.7-1.5 1.5-2.3 2.2-2.2 2.1-4.6 4.1-7.1 5.8s-5.1 3.2-7.9 4.4c-2.7 1.2-5.4 1.7-7.9 1.7-.9 0-1.7-.1-2.4-.2-.7-.2-1.4-.3-2.2-.5-3-1-5.4-2.8-7-5.4-1.6-2.6-2.6-5.6-2.9-9.1-.3-3.5-.1-7.3.8-11.3.8-4.1 2.1-8.2 3.9-12.4 2.1-4.6 4.6-9 7.6-13.3 3-4.3 6.3-8.1 9.8-11.3 3.5-3.3 7.2-5.9 11-7.9s7.5-3 11.1-3c2.5 0 4.5.5 6.2 1.4 1.6 1 2.5 2.9 2.7 5.8.2 2.4-.2 5-1.1 7.7-.9 2.8-2.1 5.4-3.7 8-1.5 2.6-3.2 5-5.2 7.3-1.9 2.2-3.8 4-5.8 5.4-1.4 1.1-2.5 1.8-3.5 2.2-1 .3-1.8.5-2.5.5-.5 0-.8-.1-1-.2-.2-.2-.2-.3-.1-.4 1.3-.3 2.8-1.3 4.4-3.1 1.7-1.7 3.4-3.8 5.1-6.1 1.7-2.4 3.3-4.9 4.8-7.6 1.5-2.7 2.6-5.2 3.4-7.4.8-2.3 1.1-4.2 1-5.8s-.9-2.4-2.5-2.6h-.8c-2.7 0-5.8 1.1-9.2 3.3-3.4 2.2-6.9 5.1-10.3 8.6-3.4 3.5-6.6 7.5-9.5 11.9-3 4.4-5.3 8.9-7.1 13.4-1.8 4.5-2.7 8.8-2.9 13-.2 4.1.7 7.7 2.8 10.6 1.8 2.5 4.4 3.7 7.8 3.7 2.2 0 4.3-.5 6.5-1.4 2.2-.9 4.3-2.1 6.4-3.4 2-1.4 4-2.9 5.8-4.6 1.6-1.5 3.1-3 4.4-4.3.4-1.4 1-2.9 1.6-4.5 1.1-2.5 2.3-4.9 3.7-7.2 1.4-2.3 2.8-4.4 4.2-6.3 1.4-1.9 2.8-3.3 4-4.3 1.7-1.4 3.2-2.2 4.4-2.2.6 0 1.2.1 1.7.4.5.3.9.6 1.3 1 1.4 1.4 2 3.1 1.9 4.9-.1 1.8-.4 3.6-.8 5.3.6-.2 1.2-.4 1.6-.4 1.4 0 2.6.7 3.7 2 .4.4.6.7.6.8 0 .2-.2.4-.7.7-.6.5-1.1 1.1-1.6 2-.5.8-1 1.7-1.3 2.7s-.7 1.9-.9 2.9c-.2 1-.4 1.8-.6 2.5-.6 1.8-.7 3.1-.5 3.8.2.2.5.4.7.4.5 0 1.2-.4 2-1.1.9-.8 1.8-1.7 2.9-2.8.9-1 1.8-2.1 2.7-3.2.3-.9.7-1.7 1-2.5.6-1.4 1.3-2.8 2-4.3.8-1.5 1.7-3.4 2.7-5.7.4-.8.8-1.3 1.3-1.6.5-.2 1.2-.4 2-.4 1.8 0 3.2.6 4.2 1.7l.2.1c.4.6.5 1.1.4 1.4-.1.3-.3.8-.7 1.4-1.7 3.1-3.3 6.2-5 9.3-1.6 3.1-3.3 6.1-4.9 9.2.3-.6 1.1-1.7 2.4-3.4 1.3-1.7 2.7-3.7 4.4-6.1 1.6-2.3 3.4-4.8 5.3-7.3 1.9-2.6 3.7-4.9 5.3-7.1 1.6-2.2 3.1-4 4.3-5.4 1.2-1.4 1.9-2.2 2.2-2.3.1-.1.3-.1.6-.1.6 0 1.3.2 2.1.5.8.4 1.3.7 1.7 1.1 1 1 1.1 2.3.5 4l-.1.2c-1.5 3.2-3.1 6.3-4.7 9.4-1.6 3.1-3.2 6.3-4.6 9.5 0 .2 0 .3-.1.4 0 .1-.1.2-.1.2l-.1.2c.1 0 .2-.1.2-.3.1-.2.2-.4.4-.5.6-.9 1.6-2.2 2.8-4.1 1.2-1.8 2.6-3.7 4-5.5 1.4-1.8 2.9-3.5 4.3-5s2.6-2.3 3.6-2.6c.1-.1.2-.1.5-.1.5 0 1 .1 1.7.3.6.2 1.2.5 1.8.8.6.4 1 .8 1.2 1.3.2.5.2 1.1-.1 1.7-1.8 3.4-3.5 6.7-5 10s-2.9 6.7-4.1 10.3v.4c-.3 1.2-.3 1.8.1 1.8.6 0 1.6-.6 3-1.7 1.4-1.2 2.7-2.5 4.1-4 1.4-1.5 2.7-2.9 3.9-4.3.3-.3.5-.6.7-.8.2-.6.4-1.2.6-1.9.6-1.8 1.4-3.5 2.2-5.2.8-1.6 1.6-3.1 2.4-4.4 1-1.5 2.6-2.3 4.7-2.3 1.8 0 3.1.7 4 2.2.2.4.1.7-.3 1-.4.3-.7.6-.9 1-1 1.4-2.1 3.1-3.1 5.3-1 2.2-1.9 4-2.5 5.5-.2.3-.4.8-.8 1.6-.4.7-.7 1.5-1 2.4-.3.9-.5 1.8-.7 2.6-.2.9-.3 1.6-.2 2.3.2 1.2.7 1.8 1.4 1.8 1 0 2.4-.9 4.1-2.8 1.7-1.8 3.3-4 4.9-6.6 1.6-2.6 2.9-5.2 4-7.9s1.5-5 1.3-6.8c-1.4-.2-2.6-.5-3.8-1.1-1.2-.6-1.7-1.7-1.5-3.2.3-1.5 1.1-2.3 2.3-2.3 1 0 2.1.4 3.2 1.3 1.1.8 1.9 1.8 2.3 2.8 1.8-.2 3.6-.5 5.4-1.1 1.8-.6 3.2-1.1 4.2-1.5.4-.6.8-1 1.3-1.1.5-.1 1-.2 1.7-.2 1.7 0 3 .5 4.1 1.6l.2.2c.5.6.6 1 .5 1.4-.2.4-.4.9-.6 1.6-.9 1.6-1.6 3-2.3 4.1-.6 1.2-1.3 2.3-1.9 3.4s-1.2 2.2-1.8 3.4l-2.1 4.2c-.6 1.1-1.1 2.2-1.7 3.3-.6 1.1-1.1 2.2-1.7 3.3.3-.5 1-1.5 2.2-3 1.1-1.5 2.4-3.3 3.9-5.3s3.1-4.2 4.7-6.4c1.7-2.2 3.3-4.3 4.7-6.2 1.5-1.9 2.8-3.5 3.8-4.7 1.1-1.3 1.8-2 2.1-2 .8 0 1.6.1 2.3.3.7.2 1.4.6 2 1.3 1.1 1 1.3 2.2.5 3.8l-.1.2c-.2.5-.7 1.4-1.3 2.8-.6 1.4-1.4 3-2.2 4.7-.8 1.7-1.6 3.5-2.3 5.3-.8 1.8-1.4 3.5-1.8 5.1-.4 1.6-.6 2.8-.5 3.7.1.9.6 1.3 1.4 1.3 1.2-.2 2.4-.7 3.7-1.7 1.2-1 2.5-2.1 3.7-3.4 1.2-1.3 2.3-2.6 3.4-4 .7-.9 1.3-1.7 1.9-2.4.6-1.4 1.3-2.8 2-4.3.9-1.9 1.7-3.6 2.5-5.1.8-1.5 1.5-2.8 2.2-3.8.7-1 1.2-1.5 1.5-1.5.2 0 .4 0 .6.1.2.1.6.2 1 .4.5.2 1 .5 1.4.8.5.3.9.6 1.3 1s.6.8.7 1.2c.1.4 0 1-.4 1.6l-.1.2c-1.4 2.2-2.9 4.5-4.3 7s-2.7 4.9-3.9 7.3c-.1.2-.3.8-.8 1.7-.4.9-.8 1.8-1.2 2.8-.4 1-.6 1.9-.8 2.7-.2.8 0 1.4.4 1.6.1.1.2.1.2.1.3 0 .9-.2 1.7-.7 3.4-2.6 6.3-5.5 8.9-8.8.3-.4.7-.9 1-1.3.4-1.3.9-2.6 1.5-3.9 1.5-3.1 3.3-6 5.4-8.7 2.1-2.7 4.1-4.7 5.9-5.9 1.4-.9 2.7-1.3 4.1-1.3 1.9 0 3.5.7 4.6 2.2 1.2 1.4 1.5 3.2 1.1 5.2-.1.4-.2.8-.2 1.1-.1.3-.2.7-.4 1.1v.1c-.2.4-.6 1-1 1.7-.4.8-.9 1.5-1.4 2.2-.5.7-1.1 1.3-1.7 1.9-.6.5-1.2.8-1.8.8-.2 0-.4 0-.5-.1-.6-.2-.6-.6-.2-1.2.4-.6.8-1 1-1.3.3-.3.7-.9 1.2-1.6.5-.8.9-1.6 1.3-2.4.4-.8.7-1.7.9-2.5.2-.8.2-1.4-.1-1.8-.1-.2-.3-.4-.7-.4-.8 0-1.9.6-3.2 1.9-1.3 1.3-2.7 2.9-4.1 4.8-1.4 1.9-2.7 4-4 6.3-1.2 2.3-2.2 4.4-2.9 6.4-.7 2-1 3.6-.8 5 .1 1.4.8 2.2 2.1 2.3 2.2 0 4.5-.7 6.8-2.2s4.5-3.2 6.5-5.3c1.4-1.4 2.6-2.8 3.9-4.2.3-.9.7-1.9 1.1-2.9 1.1-2.5 2.3-4.9 3.7-7.2 1.4-2.3 2.8-4.4 4.2-6.3 1.4-1.9 2.8-3.3 4-4.3 1.7-1.4 3.2-2.2 4.4-2.2.6 0 1.2.1 1.7.4.5.3.9.6 1.3 1 1.4 1.4 2 3.1 1.9 4.9-.1 1.8-.4 3.6-.8 5.3.6-.2 1.2-.4 1.6-.4 1.4 0 2.6.7 3.7 2 .4.4.6.7.6.8 0 .2-.2.4-.7.7-.6.5-1.1 1.1-1.6 2-.5.8-1 1.7-1.3 2.7-.4 1-.7 1.9-.9 2.9-.2 1-.4 1.8-.6 2.5-.6 1.8-.7 3.1-.5 3.8.2.2.5.4.7.4.5 0 1.2-.4 2-1.1.9-.8 1.8-1.7 2.9-2.8 1-1.1 2.1-2.3 3.1-3.7 1-1.3 2-2.6 2.9-3.7.9-1.2 1.6-2.2 2.2-3 .6-.8.9-1.3 1-1.5.5 0 .8.1 1.1.2.7 1 .9 1.4 1.1 2zm-192.2-7.7c-.4 0-1.2.5-2.3 1.4-1.2 1.3-2.5 3.1-4 5.6-1.4 2.4-2.8 4.9-4 7.4-1.2 2.5-2.1 4.8-2.8 6.7-.7 2-.8 3.1-.4 3.5.5 0 1.2-.5 2-1.6.9-1 1.9-2.3 2.9-3.9 1.1-1.6 2.2-3.3 3.4-5.1 1.2-1.8 2.4-3.5 3.5-5 .3-.6.6-1.2 1-1.8.3-.6.8-1 1.3-1.4.6-3.8.4-5.8-.6-5.8zm173 0c-.4 0-1.2.5-2.3 1.4-1.2 1.3-2.5 3.1-4 5.6-1.4 2.4-2.8 4.9-4 7.4-1.2 2.5-2.1 4.8-2.8 6.7-.7 2-.8 3.1-.4 3.5.5 0 1.2-.5 2-1.6.9-1 1.9-2.3 2.9-3.9s2.2-3.3 3.4-5.1c1.2-1.8 2.4-3.5 3.5-5 .3-.6.6-1.2 1-1.8.3-.6.8-1 1.3-1.4.6-3.8.3-5.8-.6-5.8z"/></svg>