<svg version="1.1" id="Livello_1" xmlns="http://www.w3.org/2000/svg" x="0" y="0" viewBox="0 0 217.6 96.1" xml:space="preserve"><g id="montagna_arancione"><path d="M217.6 90.2L200 48.3l-2.8 2.5c-2 1.8-5.2 1.8-7.1-.2l-3.8-3.5c-2.1 2.3-4.3 4.8-7.9 3.7l-22.6 39.4h61.8z" fill="#f1903d"/><path class="st1" fill="#fff" d="M186.9 44.1l3.5 3.4c1.7 1.6 4.4 1.7 6.1.1l2.4-2.1L194 34l-.3-.7c-.9-2.1-3.8-2.3-4.9-.3l-8.5 14.6c3.1 1 4.7-1.5 6.6-3.5z"/><path d="M200 48.3l-2.8 2.5c-2 1.8-5.2 1.8-7.1-.2l-3.8-3.5c-2.1 2.3-4.3 4.8-7.9 3.7 0 0 2.1 1.9 2.9 2.2 2.6 1 4.6.6 6.8-1.7l3.8 3.5c2 1.9 5.1 2 7.1.2l2.8-2.5-1.8-4.2z" fill="#d36033"/></g><path d="M195.9 74.5c-1.8-4.2-7.5-4.5-9.8-.6-1 1.8-3.5 5.9-4.8 8.2l-15.4-37c-1.6-3.8-6.8-4.1-8.9-.6l-11.3 19.3c-.5.8-1.7.7-2.1-.1-1.6-3.8-6.8-4.1-8.9-.6l-2.8 4.6-14.4-35.4c-1.8-4.2-7.5-4.5-9.8-.6-1 1.8-3.5 5.9-4.8 8.2l-15.4-37c-1.6-3.8-6.8-4.1-8.9-.6L67.1 21.8c-.5.8-1.7.7-2.1-.1-1.6-3.8-6.8-4.1-8.9-.6L38.9 49.9s0 .1-.1.1L31 63.1l-3.8 6.3c-.5.8-1.7.7-2-.2-1.6-3.8-6.8-4.1-8.9-.6L0 96.1h204.7l-8.8-21.6z" fill="#5fbfba"/><g id="montagna_rosa"><path d="M109.6 96.1L90.7 51.3l-2.8 2.5c-2 1.8-5.2 1.8-7.1-.2L77 50.1c-2.1 2.3-4.3 4.8-7.9 3.7L44.8 96.1h64.8z" fill="#ec6680"/><path class="st1" fill="#fff" d="M77.6 47.1l3.5 3.4c1.7 1.6 4.4 1.7 6.1.1l2.4-2.1L84.7 37l-.3-.7c-.9-2.1-3.8-2.3-4.9-.3L71 50.6c3.1 1 4.8-1.5 6.6-3.5z"/><path d="M90.7 51.3l-2.8 2.5c-2 1.8-5.2 1.8-7.1-.2L77 50.1c-2.1 2.3-4.3 4.8-7.9 3.7 0 0 2.1 1.9 2.9 2.2 2.6 1 4.6.6 6.8-1.7l3.8 3.5c2 1.9 5.1 2 7.1.2l2.8-2.5-1.8-4.2z" fill="#e83261"/></g></svg>