<svg xmlns="http://www.w3.org/2000/svg" viewBox="0 0 120.9 96.1"><path d="M120.9 96.1L97.1 39.7 93.4 43c-2.7 2.5-7 2.4-9.6-.2L78.7 38c-2.9 3.1-5.8 6.4-10.7 5L37.4 96.1h83.5z" fill="#f1903d"/><path d="M79.4 34l4.7 4.6c2.3 2.2 5.9 2.3 8.2.2l3.2-2.9L89 20.3l-.4-.9c-1.2-2.8-5.1-3-6.6-.4L70.5 38.7c4.2 1.3 6.4-2.1 8.9-4.7z" fill="#fff"/><path d="M97.1 39.7L93.4 43c-2.7 2.5-7 2.4-9.6-.2L78.7 38c-2.9 3.1-5.8 6.4-10.7 5 0 0 2.8 2.6 4 3 3.5 1.3 6.3.8 9.1-2.3l5.1 4.8c2.6 2.6 6.9 2.7 9.6.2l3.7-3.3-2.4-5.7z" fill="#d36033"/><g><path d="M85 96.1l-6.9-16.9c-1.8-4.2-7.5-4.5-9.8-.6-1 1.8-3.5 5.9-4.8 8.2L48 49.9c-1.6-3.8-6.8-4.1-8.9-.6L27.8 68.6c-.5.8-1.7.7-2.1-.1-1.6-3.8-6.8-4.1-8.9-.6L0 96.1h85z" fill="#5fbfba"/></g></svg>