<svg xmlns="http://www.w3.org/2000/svg" viewBox="0 0 113.5 114.5"><path d="M113.5 93.3L92.2 41.2c-2.2-5.3-9.6-5.8-12.5-.8-1.3 2.2-4.4 7.4-6.2 10.5L54 3.9c-2-4.8-8.7-5.2-11.3-.7L28.3 27.7c-.6 1-2.1.9-2.6-.2-2-4.8-8.7-5.2-11.3-.7L0 51.4c1 33.2 27.2 60.9 61 63.1 20.6 1.3 39.6-7 52.5-21.2z" fill="#61bfbc"/><path d="M78.1 88.7l-14-33.3-5.4 4.9c-4 3.6-10.1 3.5-14-.3l-7.4-6.9c-4.2 4.5-8.4 9.4-15.6 7.2L9 82.5c10.6 18 29.6 30.5 52 32 9.7.6 19.1-.9 27.6-4.2-3.9-8.6-10.5-21.6-10.5-21.6z" fill="#ec6680"/><path d="M64.1 55.4l-5.4 4.9c-4 3.6-10.1 3.5-14-.3l-7.4-6.9c-4.2 4.5-8.4 9.4-15.6 7.2 0 0 4.1 3.8 5.8 4.4 5.1 1.9 9.1 1.1 13.3-3.4l7.4 6.9c3.8 3.8 10 3.9 14 .3l5.4-4.9-3.5-8.2z" fill="#e83261"/><path d="M38.3 47.1l6.8 6.7c3.3 3.2 8.6 3.3 12 .3l4.6-4.2-9.5-22.6-.5-1.3c-1.7-4.1-7.4-4.4-9.6-.6L25.3 54c6.2 1.9 9.4-3 13-6.9z" fill="#fff"/></svg>